<?xml version="1.0" encoding="UTF-8" standalone="no"?>
<!-- Created with Inkscape (http://www.inkscape.org/) -->

<svg
   xmlns:dc="http://purl.org/dc/elements/1.1/"
   xmlns:cc="http://creativecommons.org/ns#"
   xmlns:rdf="http://www.w3.org/1999/02/22-rdf-syntax-ns#"
   xmlns:svg="http://www.w3.org/2000/svg"
   xmlns="http://www.w3.org/2000/svg"
   xmlns:sodipodi="http://sodipodi.sourceforge.net/DTD/sodipodi-0.dtd"
   xmlns:inkscape="http://www.inkscape.org/namespaces/inkscape"
   width="744.09448819"
   height="1052.3622047"
   id="svg2"
   version="1.1"
   inkscape:version="0.48.4 r9939"
   sodipodi:docname="cowerpoint.svg">
  <defs
     id="defs4" />
  <sodipodi:namedview
     id="base"
     pagecolor="#ffffff"
     bordercolor="#666666"
     borderopacity="1.0"
     inkscape:pageopacity="0.0"
     inkscape:pageshadow="2"
     inkscape:zoom="1.979899"
     inkscape:cx="374.6144"
     inkscape:cy="700.57471"
     inkscape:document-units="px"
     inkscape:current-layer="layer1"
     showgrid="false"
     inkscape:window-width="1364"
     inkscape:window-height="750"
     inkscape:window-x="0"
     inkscape:window-y="16"
     inkscape:window-maximized="0" />
  <metadata
     id="metadata7">
    <rdf:RDF>
      <cc:Work
         rdf:about="">
        <dc:format>image/svg+xml</dc:format>
        <dc:type
           rdf:resource="http://purl.org/dc/dcmitype/StillImage" />
        <dc:title />
      </cc:Work>
    </rdf:RDF>
  </metadata>
  <g
     inkscape:label="Layer 1"
     inkscape:groupmode="layer"
     id="layer1">
    <path
       style="fill:#e9b96e;stroke:#000000;stroke-width:1.00200105000000006;stroke-linecap:round;stroke-linejoin:round;stroke-opacity:1;stroke-miterlimit:4;stroke-dasharray:none"
       d="m 394.28572,309.50504 c 0,0 -11.42858,-90 38.57142,-87.14285 50,2.85714 17.14286,101.42857 -4.28571,101.42857 -21.42857,0 -34.28571,-14.28572 -34.28571,-14.28572 z"
       id="path3757"
       inkscape:connector-curvature="0" />
    <path
       style="fill:#e9b96e;stroke:#000000;stroke-width:1.00200105000000006;stroke-linecap:round;stroke-linejoin:round;stroke-opacity:1;stroke-miterlimit:4;stroke-dasharray:none"
       d="m 448.10225,311.8484 c 12.14285,-10.71429 28.57143,-4.28572 28.57143,10.71428 0,15 -20,36.42857 -20,36.42857 z"
       id="path3785"
       inkscape:connector-curvature="0" />
    <path
       style="fill:#e9b96e;stroke:#000000;stroke-width:1.00200105000000006;stroke-linecap:round;stroke-linejoin:round;stroke-opacity:1;stroke-miterlimit:4;stroke-dasharray:none"
       d="m 379.69459,295.21853 c 5.8522,-15.09955 -4.93793,-20.45049 -19.93652,-20.24389 -13.71675,0.18895 -24.76085,8.50981 -25.47514,28.50981 z"
       id="path3785-8"
       inkscape:connector-curvature="0"
       sodipodi:nodetypes="cscc" />
    <path
       style="fill:#eeeeec;stroke:#000000;stroke-width:1.00200105;stroke-linecap:round;stroke-linejoin:round;stroke-miterlimit:4;stroke-opacity:1;stroke-dasharray:none"
       d="M 278.46058,309.67238 444.17487,283.78477 472.58785,416.20863 303.598,456.72857 z"
       id="path2985-8"
       inkscape:connector-curvature="0"
       sodipodi:nodetypes="ccccc" />
    <path
       style="fill:#eeeeec;stroke:#000000;stroke-width:1.00200105;stroke-linecap:round;stroke-linejoin:round;stroke-miterlimit:4;stroke-opacity:1;stroke-dasharray:none"
       d="M 286.03672,299.57086 449.73071,288.83554 468.54724,423.2797 297.03201,450.16258 z"
       id="path2985-0"
       inkscape:connector-curvature="0"
       sodipodi:nodetypes="ccccc" />
    <path
       style="fill:#e9b96e;stroke:#000000;stroke-width:1.00200105000000006;stroke-linecap:round;stroke-linejoin:round;stroke-opacity:1;stroke-miterlimit:4;stroke-dasharray:none"
       d="M 418.57143,278.07647 C 410.23767,311.20101 440,316.6479 440,279.50504"
       id="path3759"
       inkscape:connector-curvature="0"
       sodipodi:nodetypes="cc" />
    <path
       sodipodi:type="arc"
       style="fill:#eeeeec;stroke:#000000;stroke-opacity:1;stroke-linecap:round;stroke-width:0.82075551999999996;stroke-miterlimit:4;stroke-dasharray:none;stroke-linejoin:round"
       id="path3761"
       sodipodi:cx="415.71429"
       sodipodi:cy="265.21933"
       sodipodi:rx="10"
       sodipodi:ry="11.428572"
       d="m 425.71429,265.21933 a 10,11.428572 0 1 1 -20,0 10,11.428572 0 1 1 20,0 z"
       transform="matrix(1.1785714,0,0,0.9375,-72.448981,15.861922)" />
    <path
       sodipodi:type="arc"
       style="fill:#eeeeec;stroke:#000000;stroke-opacity:1;stroke-linecap:round;stroke-width:0.83560034000000005;stroke-miterlimit:4;stroke-dasharray:none;stroke-linejoin:round"
       id="path3763"
       sodipodi:cx="441.42856"
       sodipodi:cy="268.07648"
       sodipodi:rx="8.5714283"
       sodipodi:ry="11.428572"
       d="m 449.99999,268.07648 a 8.5714283,11.428572 0 1 1 -17.14286,0 8.5714283,11.428572 0 1 1 17.14286,0 z"
       transform="matrix(1.2083333,0,0,0.90625,-90.178572,23.346455)" />
    <path
       sodipodi:type="arc"
       style="fill:#2e3436;stroke:#000000;stroke-opacity:1;stroke-linecap:round;stroke-width:1.00200105000000006;stroke-miterlimit:4;stroke-dasharray:none;stroke-linejoin:round"
       id="path3765"
       sodipodi:cx="417.14285"
       sodipodi:cy="263.07648"
       sodipodi:rx="2.8571429"
       sodipodi:ry="2.8571429"
       d="m 420,263.07648 a 2.8571429,2.8571429 0 1 1 -5.71429,0 2.8571429,2.8571429 0 1 1 5.71429,0 z"
       transform="translate(0,0.71428572)" />
    <path
       transform="translate(25.714286,2.1428473)"
       sodipodi:type="arc"
       style="fill:#2e3436;stroke:#000000;stroke-opacity:1;stroke-linecap:round;stroke-width:1.00200105000000006;stroke-miterlimit:4;stroke-dasharray:none;stroke-linejoin:round"
       id="path3765-6"
       sodipodi:cx="417.14285"
       sodipodi:cy="263.07648"
       sodipodi:rx="2.8571429"
       sodipodi:ry="2.8571429"
       d="m 420,263.07648 a 2.8571429,2.8571429 0 1 1 -5.71429,0 2.8571429,2.8571429 0 1 1 5.71429,0 z" />
    <path
       style="fill:#e9b96e;stroke:#000000;stroke-width:1.00200105000000006;stroke-linecap:round;stroke-linejoin:round;stroke-opacity:1;stroke-miterlimit:4;stroke-dasharray:none"
       d="m 457.73682,322.83124 c -16.42857,10.71429 -18.57143,-10 -2.85715,-15"
       id="path3787-8"
       inkscape:connector-curvature="0"
       sodipodi:nodetypes="cc" />
    <path
       style="fill:#e9b96e;stroke:#000000;stroke-width:1.00200105000000006;stroke-linecap:round;stroke-linejoin:round;stroke-opacity:1;stroke-miterlimit:4;stroke-dasharray:none"
       d="m 459.88797,334.34839 c -18.57143,12.50001 -21.42858,-10.71428 -1.42858,-15.71428"
       id="path3787"
       inkscape:connector-curvature="0"
       sodipodi:nodetypes="cc" />
    <path
       style="fill:#e9b96e;stroke:#000000;stroke-width:1.00200105000000006;stroke-linecap:round;stroke-linejoin:round;stroke-opacity:1;stroke-miterlimit:4;stroke-dasharray:none"
       d="m 462.37968,346.04552 c -16.42857,10.71429 -17.85714,-9.28571 -2.14286,-14.28571"
       id="path3787-1"
       inkscape:connector-curvature="0"
       sodipodi:nodetypes="cc" />
    <path
       style="fill:#e9b96e;stroke:#000000;stroke-width:1.00200105000000006;stroke-linecap:round;stroke-linejoin:round;stroke-opacity:1;stroke-miterlimit:4;stroke-dasharray:none"
       d="m 366.05694,289.9781 c -4.36965,19.12068 15.80702,13.96553 15.06228,-2.50821"
       id="path3787-8-6"
       inkscape:connector-curvature="0"
       sodipodi:nodetypes="cc" />
    <path
       style="fill:#e9b96e;stroke:#000000;stroke-width:1.00200105000000006;stroke-linecap:round;stroke-linejoin:round;stroke-opacity:1;stroke-miterlimit:4;stroke-dasharray:none"
       d="m 354.50671,291.9439 c -5.30385,21.74896 17.46557,16.39918 15.23827,-4.09567"
       id="path3787-17"
       inkscape:connector-curvature="0"
       sodipodi:nodetypes="cc" />
    <path
       style="fill:#e9b96e;stroke:#000000;stroke-width:1.00200105000000006;stroke-linecap:round;stroke-linejoin:round;stroke-opacity:1;stroke-miterlimit:4;stroke-dasharray:none"
       d="m 342.66979,292.64227 c -4.36964,19.12066 14.88974,13.54243 14.145,-2.93131"
       id="path3787-1-9"
       inkscape:connector-curvature="0"
       sodipodi:nodetypes="cc" />
    <path
       style="fill:#f57900;stroke:#000000;stroke-width:1.00200105000000006;stroke-linecap:round;stroke-linejoin:round;stroke-opacity:1;stroke-miterlimit:4;stroke-dasharray:none"
       d="m 350.01786,382.12597 c -12.62691,-12.62691 -44.06379,-1.32871 -36.36549,22.72843 8.08122,25.25381 40.4061,19.19289 41.92133,1.01015 l -22.72843,-6.56598 z"
       id="path3065"
       inkscape:connector-curvature="0"
       sodipodi:nodetypes="csccc" />
    <path
       style="fill:#ad7fa8;stroke:#000000;stroke-width:1.00200105000000006;stroke-linecap:round;stroke-linejoin:round;stroke-opacity:1;stroke-miterlimit:4;stroke-dasharray:none"
       d="m 346.48233,394.75287 15.65736,-16.66751 c 4.54569,5.55584 7.57615,18.18274 6.06092,22.72843 z"
       id="path3067"
       inkscape:connector-curvature="0"
       sodipodi:nodetypes="cccc" />
    <path
       style="fill:#edd400;stroke:#000000;stroke-width:1.00200105000000006;stroke-linecap:round;stroke-linejoin:round;stroke-opacity:1;stroke-miterlimit:4;stroke-dasharray:none"
       d="m 304.56099,366.4686 -3.53553,-20.20305 11.11168,-2.52538 3.53553,22.72843 z"
       id="path3837"
       inkscape:connector-curvature="0" />
    <path
       style="fill:#73d216;stroke:#000000;stroke-width:1.00200105000000006;stroke-linecap:round;stroke-linejoin:round;stroke-opacity:1;stroke-miterlimit:4;stroke-dasharray:none"
       d="m 319.2082,363.43815 -6.06091,-38.3858 11.61675,-2.52538 6.56599,40.91118 z"
       id="path3839"
       inkscape:connector-curvature="0" />
    <path
       style="fill:#73d216;stroke:#000000;stroke-width:1.00200105000000006;stroke-linecap:round;stroke-linejoin:round;stroke-opacity:1;stroke-miterlimit:4;stroke-dasharray:none"
       d="m 336.88587,359.90261 -7.07106,-42.4264 12.6269,-2.02031 6.06092,44.44671 z"
       id="path3841"
       inkscape:connector-curvature="0" />
    <path
       style="fill:#2e3436;stroke:#000000;stroke-width:1.00200105000000006;stroke-linecap:round;stroke-linejoin:round;stroke-opacity:1;stroke-miterlimit:4;stroke-dasharray:none"
       d="m 375.27167,337.67926 8.08122,-7.07107 c 0,0 5.05076,7.07107 7.57615,3.03046 2.52538,-4.04061 15.65736,-6.06092 15.65736,-6.06092 0,0 0,4.04061 5.55584,3.03046 5.55584,-1.01015 18.18274,-5.55584 18.18274,-5.55584 0,0 2.02031,19.1929 -4.04061,14.14214 -6.06091,-5.05077 -16.16244,2.52538 -16.16244,2.52538 0,0 -1.51523,-8.08122 -4.54568,-6.06092 -3.03046,2.02031 -16.66752,7.57615 -16.66752,7.57615 0,0 2.02031,-5.55584 -1.51523,-5.55584 -3.53553,0 -6.06091,6.06091 -8.08122,6.06091 -2.0203,0 -4.04061,-6.06091 -4.04061,-6.06091 z"
       id="path3843"
       inkscape:connector-curvature="0" />
    <path
       style="fill:#2e3436;stroke:#000000;stroke-width:1.00200105000000006;stroke-linecap:round;stroke-linejoin:round;stroke-opacity:1;stroke-miterlimit:4;stroke-dasharray:none"
       d="m 385.05184,395.10015 9.75307,4.49263 c 0,0 8.4556,-8.81688 12.02202,-5.65701 3.56641,3.15988 11.11842,1.98285 11.11842,1.98285 0,0 -1.14444,-3.87515 4.47,-4.47997 33.85999,-4.62176 17.74383,-4.01531 2.07066,-9.03779 0,0 -7.86075,5.48134 -11.33933,4.4021 -3.47858,-1.07925 -10.00659,-1.78456 -10.00659,-1.78456 -5.2473,1.71072 -9.34937,4.9649 -15.92976,3.12459 -1.93757,0.57222 -2.15849,6.95716 -2.15849,6.95716 z"
       id="path3843-8"
       inkscape:connector-curvature="0"
       sodipodi:nodetypes="ccscccsccc" />
    <path
       style="fill:#2e3436;stroke:#000000;stroke-width:1.00200105000000006;stroke-linecap:round;stroke-linejoin:round;stroke-opacity:1;stroke-miterlimit:4;stroke-dasharray:none"
       d="m 445.22993,357.01145 -7.78695,7.39389 c 0,0 -12.91031,-6.35472 -15.26927,-2.21475 -2.35896,4.13998 -19.43851,6.18763 -19.43851,6.18763 0,0 -0.16434,-4.03727 -5.6745,-2.80199 -5.51016,1.23527 -17.94173,6.29075 -17.94173,6.29075 0,0 -2.79923,-19.09485 3.46209,-14.29477 6.26132,4.80009 16.04636,-3.18064 16.04636,-3.18064 0,0 9.41879,7.00276 12.36456,4.86088 2.94578,-2.14189 20.38621,-7.23761 20.38621,-7.23761 0,0 -1.79268,5.63341 1.73994,5.48961 3.5326,-0.14379 5.80939,-6.30239 7.82803,-6.38456 2.01863,-0.0822 4.28377,5.89156 4.28377,5.89156 z"
       id="path3843-4"
       inkscape:connector-curvature="0"
       sodipodi:nodetypes="ccscscscscscc" />
    <path
       style="fill:#8f5902;stroke:#000000;stroke-width:1.00200105000000006;stroke-linecap:round;stroke-linejoin:round;stroke-opacity:1;stroke-miterlimit:4;stroke-dasharray:none"
       d="m 387.3935,271.51426 c -2.52538,-14.14213 5.55584,-28.28427 5.55584,-28.28427 0,0 0,6.566 1.01015,9.09138 2.52538,-4.54569 11.11168,-8.5863 11.11168,-8.5863 0,0 -9.09137,26.26397 -8.08122,33.33504 -4.54569,-3.03047 -6.06092,-11.61676 -6.06092,-11.61676 z"
       id="path3895"
       inkscape:connector-curvature="0"
       sodipodi:nodetypes="ccccccc" />
    <path
       style="fill:#8f5902;stroke:#000000;stroke-width:1.00200105000000006;stroke-linecap:round;stroke-linejoin:round;stroke-opacity:1;stroke-miterlimit:4;stroke-dasharray:none"
       d="m 413.71874,221.28673 c 21.75605,-10.84547 53.30556,2.22828 48.19145,55.69672 l -2.79586,-6.47934 -4.04061,2.02031 c 1.55621,-3.62594 0.94281,-13.07945 1.08757,-17.7308 2.64476,4.09865 3.01198,-0.3934 1.88659,-4.81068 -2.25079,-8.83456 -6.54345,-22.72721 -13.0271,-23.06858 -11.61676,0 -16.68546,3.47426 -23.84845,8.01469 2.3954,-3.93601 7.98714,-7.24438 14.30059,-11.79007 -7.219,-4.50761 -21.75418,-1.85225 -21.75418,-1.85225 z"
       id="path3915"
       inkscape:connector-curvature="0"
       sodipodi:nodetypes="cccccscccc" />
  </g>
</svg>
