<?xml version="1.0" encoding="UTF-8" standalone="no"?>
<!-- Created with Inkscape (http://www.inkscape.org/) -->

<svg
   xmlns:dc="http://purl.org/dc/elements/1.1/"
   xmlns:cc="http://creativecommons.org/ns#"
   xmlns:rdf="http://www.w3.org/1999/02/22-rdf-syntax-ns#"
   xmlns:svg="http://www.w3.org/2000/svg"
   xmlns="http://www.w3.org/2000/svg"
   xmlns:sodipodi="http://sodipodi.sourceforge.net/DTD/sodipodi-0.dtd"
   xmlns:inkscape="http://www.inkscape.org/namespaces/inkscape"
   width="512"
   height="512"
   id="svg3930"
   version="1.1"
   inkscape:version="0.48.5 r10040"
   sodipodi:docname="New document 10">
  <defs
     id="defs3932" />
  <sodipodi:namedview
     id="base"
     pagecolor="#ffffff"
     bordercolor="#666666"
     borderopacity="1.0"
     inkscape:pageopacity="0.0"
     inkscape:pageshadow="2"
     inkscape:zoom="0.35"
     inkscape:cx="185"
     inkscape:cy="520"
     inkscape:document-units="px"
     inkscape:current-layer="layer1"
     showgrid="false"
     inkscape:window-width="689"
     inkscape:window-height="750"
     inkscape:window-x="675"
     inkscape:window-y="16"
     inkscape:window-maximized="0" />
  <metadata
     id="metadata3935">
    <rdf:RDF>
      <cc:Work
         rdf:about="">
        <dc:format>image/svg+xml</dc:format>
        <dc:type
           rdf:resource="http://purl.org/dc/dcmitype/StillImage" />
        <dc:title></dc:title>
      </cc:Work>
    </rdf:RDF>
  </metadata>
  <g
     inkscape:label="Layer 1"
     inkscape:groupmode="layer"
     id="layer1"
     transform="translate(0,-540.36218)">
    <g
       id="g3983"
       transform="matrix(1.1814456,0,0,1.1814456,-297.59165,-284.91966)">
      <path
         inkscape:export-ydpi="108.42352"
         inkscape:export-xdpi="108.42352"
         inkscape:export-filename="/home/penduin/suckitdan.png"
         d="m 566.69559,536.67932 c 0,92.88899 -75.30141,168.1904 -168.1904,168.1904 -92.88899,0 -168.1904,-75.30141 -168.1904,-168.1904 0,-92.88899 75.30141,-168.1904 168.1904,-168.1904 92.88899,0 168.1904,75.30141 168.1904,168.1904 z"
         sodipodi:ry="168.1904"
         sodipodi:rx="168.1904"
         sodipodi:cy="536.67932"
         sodipodi:cx="398.50519"
         id="path3898"
         style="fill:#e9b96e;stroke:none"
         sodipodi:type="arc"
         transform="translate(77.042834,391.04697)" />
      <path
         inkscape:export-ydpi="108.42352"
         inkscape:export-xdpi="108.42352"
         inkscape:export-filename="/home/penduin/suckitdan.png"
         d="m 365.67522,439.19958 c 0,17.85254 -14.47234,32.32489 -32.32488,32.32489 -17.85254,0 -32.32488,-14.47235 -32.32488,-32.32489 0,-17.85253 14.47234,-32.32488 32.32488,-32.32488 17.85254,0 32.32488,14.47235 32.32488,32.32488 z"
         sodipodi:ry="32.324883"
         sodipodi:rx="32.324883"
         sodipodi:cy="439.19958"
         sodipodi:cx="333.35034"
         id="path2985"
         style="fill:#ffffff;stroke:#000000;stroke-width:4;stroke-miterlimit:4;stroke-opacity:1;stroke-dasharray:none"
         sodipodi:type="arc"
         transform="translate(77.042834,391.04697)" />
      <path
         inkscape:export-ydpi="108.42352"
         inkscape:export-xdpi="108.42352"
         inkscape:export-filename="/home/penduin/suckitdan.png"
         sodipodi:nodetypes="csc"
         inkscape:connector-curvature="0"
         id="path3799-5"
         d="m 509.41824,891.49197 c 0,0 -127.8893,-172.62367 -65.18956,-186.19011 62.69974,-13.56645 65.18956,186.19011 65.18956,186.19011 z"
         style="fill:#eeeeec;stroke:#000000;stroke-width:4;stroke-linecap:round;stroke-linejoin:round;stroke-miterlimit:4;stroke-opacity:1;stroke-dasharray:none" />
      <path
         inkscape:export-ydpi="108.42352"
         inkscape:export-xdpi="108.42352"
         inkscape:export-filename="/home/penduin/suckitdan.png"
         sodipodi:nodetypes="csc"
         inkscape:connector-curvature="0"
         id="path3799"
         d="m 496.25613,882.77449 c 0,0 128.28938,-167.68533 156.57365,-110.10664 28.28427,57.5787 -156.57365,110.10664 -156.57365,110.10664 z"
         style="fill:#eeeeec;stroke:#000000;stroke-width:4;stroke-linecap:round;stroke-linejoin:round;stroke-miterlimit:4;stroke-opacity:1;stroke-dasharray:none" />
      <path
         inkscape:export-ydpi="108.42352"
         inkscape:export-xdpi="108.42352"
         inkscape:export-filename="/home/penduin/suckitdan.png"
         sodipodi:nodetypes="ccc"
         inkscape:connector-curvature="0"
         id="path3819"
         d="m 475.04293,911.05876 c 0,0 -38.38579,3.03045 -46.46701,13.13198 0,0 1.01015,57.5787 -12.12184,78.79186"
         style="fill:none;stroke:#000000;stroke-width:4;stroke-linecap:round;stroke-linejoin:miter;stroke-miterlimit:4;stroke-opacity:1;stroke-dasharray:none" />
      <path
         inkscape:export-ydpi="108.42352"
         inkscape:export-xdpi="108.42352"
         inkscape:export-filename="/home/penduin/suckitdan.png"
         sodipodi:nodetypes="ccc"
         inkscape:connector-curvature="0"
         id="path3819-2"
         d="m 495.24598,931.76689 c 0,0 -24.24365,1.01014 -32.32487,11.11167 0,0 4.0406,29.29443 -9.09139,50.50763"
         style="fill:none;stroke:#000000;stroke-width:4;stroke-linecap:round;stroke-linejoin:miter;stroke-miterlimit:4;stroke-opacity:1;stroke-dasharray:none" />
      <path
         inkscape:export-ydpi="108.42352"
         inkscape:export-xdpi="108.42352"
         inkscape:export-filename="/home/penduin/suckitdan.png"
         sodipodi:nodetypes="zssszz"
         inkscape:connector-curvature="0"
         id="path3775"
         d="m 468.98202,877.72372 c 21.71828,-25.75888 101.12738,32.03426 96.97465,72.73099 -1.2627,12.37437 58.42583,119.80469 41.45646,113.49399 -51.95908,-19.3229 -55.81791,-92.7222 -62.22573,-99.32596 -11.75638,-12.11588 -40.08976,1.18714 -62.06325,-16.18834 -21.97348,-17.37548 -35.86041,-44.9518 -14.14213,-70.71068 z"
         style="fill:#888a85;stroke:#000000;stroke-width:4;stroke-linecap:butt;stroke-linejoin:miter;stroke-miterlimit:4;stroke-opacity:1;stroke-dasharray:none" />
      <path
         inkscape:export-ydpi="108.42352"
         inkscape:export-xdpi="108.42352"
         inkscape:export-filename="/home/penduin/suckitdan.png"
         sodipodi:nodetypes="zscszz"
         inkscape:connector-curvature="0"
         id="path3773"
         d="m 427.56576,837.31763 c -41.16839,-1.16912 -37.37564,24.24365 -35.35533,39.39594 2.0203,15.15229 -105.05587,141.42133 -105.05587,141.42133 0,0 118.18785,-114.14721 120.20815,-124.24873 2.02031,-10.10153 45.33554,24.06543 66.67007,6.06091 21.33453,-18.00451 -5.29863,-61.46033 -46.46702,-62.62945 z"
         style="fill:#babdb6;stroke:#000000;stroke-width:4;stroke-linecap:round;stroke-linejoin:round;stroke-miterlimit:4;stroke-opacity:1;stroke-dasharray:none" />
      <path
         inkscape:export-ydpi="108.42352"
         inkscape:export-xdpi="108.42352"
         inkscape:export-filename="/home/penduin/suckitdan.png"
         d="m 365.67522,439.19958 c 0,17.85254 -14.47234,32.32489 -32.32488,32.32489 -17.85254,0 -32.32488,-14.47235 -32.32488,-32.32489 0,-17.85253 14.47234,-32.32488 32.32488,-32.32488 17.85254,0 32.32488,14.47235 32.32488,32.32488 z"
         sodipodi:ry="32.324883"
         sodipodi:rx="32.324883"
         sodipodi:cy="439.19958"
         sodipodi:cx="333.35034"
         id="path2985-7"
         style="fill:#ffffff;stroke:#000000;stroke-width:3.09049368;stroke-miterlimit:4;stroke-opacity:1;stroke-dasharray:none"
         sodipodi:type="arc"
         transform="matrix(1.2942916,0,0,1.2942916,28.438094,274.9262)" />
      <path
         inkscape:export-ydpi="108.42352"
         inkscape:export-xdpi="108.42352"
         inkscape:export-filename="/home/penduin/suckitdan.png"
         transform="translate(57.849934,375.89468)"
         d="m 412.14223,457.88742 c 0,5.29997 -4.29648,9.59645 -9.59645,9.59645 -5.29998,0 -9.59645,-4.29648 -9.59645,-9.59645 0,-5.29997 4.29647,-9.59645 9.59645,-9.59645 5.29997,0 9.59645,4.29648 9.59645,9.59645 z"
         sodipodi:ry="9.5964489"
         sodipodi:rx="9.5964489"
         sodipodi:cy="457.88742"
         sodipodi:cx="402.54578"
         id="path3777"
         style="fill:#000000;stroke:#000000;stroke-width:4;stroke-linecap:round;stroke-linejoin:round;stroke-miterlimit:4;stroke-opacity:1;stroke-dasharray:none"
         sodipodi:type="arc" />
      <path
         inkscape:export-ydpi="108.42352"
         inkscape:export-xdpi="108.42352"
         inkscape:export-filename="/home/penduin/suckitdan.png"
         d="m 412.14223,457.88742 c 0,5.29997 -4.29648,9.59645 -9.59645,9.59645 -5.29998,0 -9.59645,-4.29648 -9.59645,-9.59645 0,-5.29997 4.29647,-9.59645 9.59645,-9.59645 5.29997,0 9.59645,4.29648 9.59645,9.59645 z"
         sodipodi:ry="9.5964489"
         sodipodi:rx="9.5964489"
         sodipodi:cy="457.88742"
         sodipodi:cx="402.54578"
         id="path3777-9"
         style="fill:#000000;stroke:#000000;stroke-width:4;stroke-linecap:round;stroke-linejoin:round;stroke-miterlimit:4;stroke-opacity:1;stroke-dasharray:none"
         sodipodi:type="arc"
         transform="translate(-8.3150455,367.30838)" />
      <path
         inkscape:export-ydpi="108.42352"
         inkscape:export-xdpi="108.42352"
         inkscape:export-filename="/home/penduin/suckitdan.png"
         inkscape:connector-curvature="0"
         id="path3797"
         d="m 287.15456,1018.1349 c -2.02031,18.1828 -19.1929,59.599 -3.03046,59.599 16.16244,0 3.03046,-59.599 3.03046,-59.599 z"
         style="fill:#a40000;stroke:#000000;stroke-width:4;stroke-linecap:round;stroke-linejoin:round;stroke-miterlimit:4;stroke-opacity:1;stroke-dasharray:none" />
      <path
         inkscape:export-ydpi="108.42352"
         inkscape:export-xdpi="108.42352"
         inkscape:export-filename="/home/penduin/suckitdan.png"
         sodipodi:nodetypes="ccc"
         inkscape:connector-curvature="0"
         id="path3819-6"
         d="m 500.29674,912.57399 c 0,0 39.39595,7.07106 47.47717,17.17259 0,0 -22.22336,82.83252 -9.09137,104.04572"
         style="fill:none;stroke:#000000;stroke-width:4;stroke-linecap:round;stroke-linejoin:miter;stroke-miterlimit:4;stroke-opacity:1;stroke-dasharray:none" />
      <path
         inkscape:export-ydpi="108.42352"
         inkscape:export-xdpi="108.42352"
         inkscape:export-filename="/home/penduin/suckitdan.png"
         sodipodi:nodetypes="ccc"
         inkscape:connector-curvature="0"
         id="path3819-6-9"
         d="m 511.9135,939.34304 c 0,0 6.97378,-1.86829 22.22336,11.11167 0,0 -12.12184,29.29444 -11.11168,49.49748"
         style="fill:none;stroke:#000000;stroke-width:4;stroke-linecap:round;stroke-linejoin:miter;stroke-miterlimit:4;stroke-opacity:1;stroke-dasharray:none" />
      <g
         inkscape:export-ydpi="108.42352"
         inkscape:export-xdpi="108.42352"
         inkscape:export-filename="/home/penduin/suckitdan.png"
         transform="translate(114.41847,377.91499)"
         style="stroke:none"
         id="g3890">
        <text
           xml:space="preserve"
           style="font-size:40px;font-style:normal;font-variant:normal;font-weight:bold;font-stretch:normal;line-height:125%;letter-spacing:0px;word-spacing:0px;fill:#000000;fill-opacity:1;stroke:none;font-family:Sans;-inkscape-font-specification:Terminus Bold"
           x="154.55334"
           y="749.31641"
           id="text3875"
           sodipodi:linespacing="125%"><tspan
             sodipodi:role="line"
             id="tspan3877"
             x="154.55334"
             y="749.31641"
             style="font-style:normal;font-variant:normal;font-weight:bold;font-stretch:normal;stroke:none;font-family:Sans;-inkscape-font-specification:Terminus Bold"><tspan
   id="tspan3896"
   style="fill:#a40000;stroke:none">Suck It Dan!  </tspan> Inc.</tspan></text>
        <text
           xml:space="preserve"
           style="font-size:17.29016876px;font-style:normal;font-weight:normal;line-height:125%;letter-spacing:0px;word-spacing:0px;fill:#000000;fill-opacity:1;stroke:none;font-family:Sans"
           x="429.24832"
           y="724.67963"
           id="text3886"
           sodipodi:linespacing="125%"><tspan
             style="font-weight:bold;fill:#a40000;stroke:none;-inkscape-font-specification:Sans Bold"
             sodipodi:role="line"
             id="tspan3888"
             x="429.24832"
             y="724.67963">TM</tspan></text>
      </g>
    </g>
  </g>
</svg>
